<?xml version="1.0" encoding="UTF-8" standalone="no"?><!DOCTYPE svg PUBLIC "-//W3C//DTD SVG 1.1//EN" "http://www.w3.org/Graphics/SVG/1.1/DTD/svg11.dtd"><svg width="100%" height="100%" viewBox="0 0 3941 1083" version="1.1" xmlns="http://www.w3.org/2000/svg" xmlns:xlink="http://www.w3.org/1999/xlink" xml:space="preserve" xmlns:serif="http://www.serif.com/" style="fill-rule:evenodd;clip-rule:evenodd;stroke-linejoin:round;stroke-miterlimit:2;"><rect id="Plan-de-travail1" serif:id="Plan de travail1" x="0" y="0" width="3941" height="1083" style="fill:none;"/><g><path d="M202.885,53.274c-2.3,0.77 -5.94,4.02 -8.23,6.89c-4.02,4.98 -4.02,5.94 -4.02,103.99c-0,88.28 0.38,99.39 3.06,103.41c7.28,10.15 -7.47,9.77 314.84,9.77c320.96,-0 306.22,0.38 315.03,-9.58c3.64,-4.02 3.83,-7.28 4.4,-100.73c0.57,-106.29 0.57,-105.52 -10.92,-112.41c-5.17,-3.06 -26.23,-3.26 -307.94,-3.06c-166.23,-0.01 -304.12,0.76 -306.22,1.72Z" style="fill:url(#_Linear1);fill-rule:nonzero;"/><path d="M242.335,340.334l-0,21.07l-15.7,4.79c-139.23,42.51 -145.74,44.81 -153.21,52.66c-11.68,12.45 -12.06,28.92 -0.96,41.75c6.7,7.66 15.51,12.06 24.13,12.06c4.41,-0 29.88,-7.09 65.88,-18.39c3.06,-0.96 3.26,2.68 3.26,58.03l-0,58.99l-6.89,3.83c-8.62,4.59 -16.09,13.41 -16.09,18.77c-0,7.09 6.89,16.09 13.79,18.19c15.51,4.98 117.39,19.15 173.89,24.13c165.46,15.13 322.3,9.58 493.13,-17.24c36.77,-5.75 41.94,-7.28 46.92,-13.6c8.23,-10.72 3.26,-22.98 -13.02,-31.6l-6.13,-3.25l-0,-58.6c-0,-32.17 0.57,-58.41 1.53,-58.41c0.77,-0 15.13,4.21 31.98,9.58c16.85,5.17 33.32,9.58 36.39,9.58c15.89,-0 31.41,-15.51 31.6,-31.41c-0,-9.19 -5.94,-21.83 -12.64,-26.81c-2.87,-1.92 -37.54,-13.6 -77.18,-25.85l-72.02,-22.41l-0.96,-22.98l-0.96,-22.79l-31.98,-0.57l-32.17,-0.38l-0,101.3c-0,55.73 -0.77,101.88 -1.53,102.46c-1.92,1.15 -46.92,5.75 -89.44,9.19c-19.72,1.53 -65.11,2.49 -126.39,2.49c-91.73,-0 -108.97,-0.77 -176.57,-7.09l-23.55,-2.11l-0.38,-102.65l-0.57,-102.65l-31.98,-0.57l-32.17,-0.38l-0,20.87l-0.01,-0Zm-0.39,137.5l-0.57,47.11l-15.9,10.15l-15.7,10.34l0.38,-53.05l0.57,-52.85l12.45,-4.41c21.07,-7.27 19.35,-11.48 18.77,42.71Zm562.46,-39.64l4.79,1.92l-0,51.7c-0,28.34 -0.57,51.71 -1.34,51.71c-0.57,-0 -4.98,-2.11 -9.57,-4.79l-8.23,-4.98l-0,-99.77l4.79,1.15c2.47,0.57 6.88,2.11 9.56,3.06Z" style="fill:url(#_Linear2);fill-rule:nonzero;"/><path d="M215.325,669.534c1.15,2.3 4.98,6.13 8.43,8.62c3.26,2.49 54.2,32.56 112.8,66.65c58.79,34.09 106.09,62.43 105.33,63.2c-0.77,0.77 -63.39,37.34 -139.23,81.2c-75.84,44.05 -140.76,82.16 -144.4,84.83c-15.32,11.3 -15.7,38.5 -0.58,50.18c6.7,5.36 18,8.43 25.66,6.89c3.64,-0.58 78.33,-42.9 166.04,-93.84l159.33,-92.69l159.33,92.69c87.71,50.94 162.21,93.26 165.65,93.84c7.85,1.53 18.96,-1.53 26.05,-7.08c14.94,-11.68 14.94,-37.54 0.19,-49.22c-2.68,-2.11 -68.17,-40.79 -145.73,-85.79c-120.84,-70.09 -140.18,-81.97 -137.31,-84.07c1.92,-1.15 50.94,-29.68 108.78,-63.2c93.07,-53.81 120.65,-71.43 117.39,-74.88c-0.57,-0.38 -21.06,1.72 -45.77,4.79c-24.71,3.26 -56.88,6.7 -71.43,8.04l-26.81,2.3l-75.26,43.86l-75.07,43.67l-75.26,-43.67l-75.26,-43.86l-26.81,-2.3c-22.98,-2.11 -77.56,-8.43 -108.97,-12.83c-9,-1.35 -9.19,-1.16 -7.09,2.67Z" style="fill:url(#_Linear3);fill-rule:nonzero;"/></g><g><text x="1084.33px" y="574.368px" style="font-family:'ArialMT', 'Arial', sans-serif;font-size:418.929px;fill:url(#_Linear4);">FÉMINIVISION</text><text x="1431.21px" y="786.18px" style="font-family:'ArialMT', 'Arial', sans-serif;font-size:181.827px;fill:url(#_Linear5);">Films réalisés par des femmes</text></g><defs><linearGradient id="_Linear1" x1="0" y1="0" x2="1" y2="0" gradientUnits="userSpaceOnUse" gradientTransform="matrix(431,-1333,1333,431,400.605,935.5)"><stop offset="0" style="stop-color:#0094d0;stop-opacity:1"/><stop offset="1" style="stop-color:#0073a1;stop-opacity:1"/></linearGradient><linearGradient id="_Linear2" x1="0" y1="0" x2="1" y2="0" gradientUnits="userSpaceOnUse" gradientTransform="matrix(431,-1333,1333,431,400.605,935.5)"><stop offset="0" style="stop-color:#0094d0;stop-opacity:1"/><stop offset="1" style="stop-color:#0073a1;stop-opacity:1"/></linearGradient><linearGradient id="_Linear3" x1="0" y1="0" x2="1" y2="0" gradientUnits="userSpaceOnUse" gradientTransform="matrix(431,-1333,1333,431,400.605,935.5)"><stop offset="0" style="stop-color:#0094d0;stop-opacity:1"/><stop offset="1" style="stop-color:#0073a1;stop-opacity:1"/></linearGradient><linearGradient id="_Linear4" x1="0" y1="0" x2="1" y2="0" gradientUnits="userSpaceOnUse" gradientTransform="matrix(168.735,-1989.91,1989.91,168.735,2752.3,1113.85)"><stop offset="0" style="stop-color:#0095d0;stop-opacity:1"/><stop offset="1" style="stop-color:#007eae;stop-opacity:1"/></linearGradient><linearGradient id="_Linear5" x1="0" y1="0" x2="1" y2="0" gradientUnits="userSpaceOnUse" gradientTransform="matrix(-154.189,-823.312,823.312,-154.189,2522.69,1118.28)"><stop offset="0" style="stop-color:#0095d0;stop-opacity:1"/><stop offset="1" style="stop-color:#006790;stop-opacity:1"/></linearGradient></defs></svg>